<svg id="Layer_1" xmlns="http://www.w3.org/2000/svg" viewBox="0 0 163 53">
  <defs>
    <style>
      .cls-1 {
        fill: #fff;
      }
    </style>
  </defs>
  <path class="cls-1" d="M153.52,4.5c2.75,0,4.98,2.23,4.98,4.98v34.04c0,2.75-2.23,4.98-4.98,4.98H9.48c-2.75,0-4.98-2.23-4.98-4.98V9.48c0-2.75,2.23-4.98,4.98-4.98h144.04M153.52,1.5H9.48C5.07,1.5,1.5,5.07,1.5,9.48v34.04c0,4.41,3.57,7.98,7.98,7.98h144.04c4.41,0,7.98-3.57,7.98-7.98V9.48c0-4.41-3.57-7.98-7.98-7.98h0Z"/>
  <g>
    <path class="cls-1" d="M21.04,29.72h1.99c1.52,0,2.28.53,2.28,1.59,0,.74-.27,1.31-.81,1.73s-1.29.62-2.24.62h-2.31c-1.04,0-1.74-.4-2.12-1.21-.9.81-1.78,1.21-2.62,1.21h-2.06c-1.33,0-2.4-.47-3.21-1.42-.81-.95-1.22-2.19-1.22-3.72,0-2.32.8-4.39,2.4-6.21,1.6-1.83,3.4-2.74,5.42-2.74,1.54,0,2.67.54,3.38,1.61.6-.9,1.39-1.36,2.37-1.36.53,0,.97.17,1.33.51.36.34.53.75.53,1.25,0,.34-.1.74-.29,1.21l-.2.49-2.6,6.44ZM14.48,29.81h.45c.99,0,1.65-.4,1.97-1.21l1.27-3.13c.17-.41.25-.75.25-1.03,0-.33-.16-.61-.48-.85-.32-.24-.7-.36-1.15-.36-.88,0-1.74.51-2.57,1.54-.83,1.02-1.25,2.09-1.25,3.18,0,1.24.5,1.86,1.5,1.86Z"/>
    <path class="cls-1" d="M38.42,29.72h2.06c1.53,0,2.3.54,2.3,1.61,0,.74-.27,1.31-.81,1.72-.54.41-1.29.61-2.24.61h-2.44c-.94,0-1.63-.39-2.06-1.16-.77.77-1.6,1.16-2.48,1.16h-2.3c-1.34,0-2.41-.46-3.21-1.37-.8-.92-1.2-2.13-1.2-3.65,0-2.33.79-4.42,2.38-6.28,1.59-1.86,3.37-2.79,5.34-2.79,1.46,0,2.62.52,3.49,1.57l4.03-9.89c.69-1.69,1.65-2.53,2.88-2.53.52,0,.96.17,1.32.5s.54.74.54,1.22c0,.37-.09.8-.27,1.27l-.22.49-7.11,17.53ZM31.8,29.81h.69c.83,0,1.38-.33,1.65-.99l1.36-3.35c.17-.41.25-.72.25-.94,0-.36-.15-.67-.46-.92-.31-.25-.69-.38-1.15-.38-.94,0-1.82.52-2.63,1.57-.81,1.05-1.22,2.18-1.22,3.4,0,1.07.51,1.61,1.52,1.61Z"/>
    <path class="cls-1" d="M55.93,29.72h2.06c1.53,0,2.3.54,2.3,1.61,0,.74-.27,1.31-.81,1.72-.54.41-1.29.61-2.24.61h-2.44c-.94,0-1.63-.39-2.06-1.16-.77.77-1.6,1.16-2.48,1.16h-2.3c-1.34,0-2.41-.46-3.21-1.37-.8-.92-1.2-2.13-1.2-3.65,0-2.33.79-4.42,2.38-6.28,1.59-1.86,3.37-2.79,5.34-2.79,1.46,0,2.62.52,3.49,1.57l4.03-9.89c.69-1.69,1.65-2.53,2.88-2.53.52,0,.96.17,1.32.5s.54.74.54,1.22c0,.37-.09.8-.27,1.27l-.22.49-7.11,17.53ZM49.31,29.81h.69c.83,0,1.38-.33,1.65-.99l1.36-3.35c.17-.41.25-.72.25-.94,0-.36-.15-.67-.46-.92-.31-.25-.69-.38-1.15-.38-.94,0-1.82.52-2.63,1.57-.81,1.05-1.22,2.18-1.22,3.4,0,1.07.51,1.61,1.52,1.61Z"/>
    <path class="cls-1" d="M82.62,29.72h1.99c1.52,0,2.28.53,2.28,1.59,0,.74-.27,1.31-.81,1.73s-1.29.62-2.24.62h-2.31c-1.04,0-1.74-.4-2.12-1.21-.9.81-1.78,1.21-2.62,1.21h-2.06c-1.33,0-2.4-.47-3.21-1.42-.81-.95-1.22-2.19-1.22-3.72,0-2.32.8-4.39,2.4-6.21,1.6-1.83,3.4-2.74,5.42-2.74,1.54,0,2.67.54,3.38,1.61.6-.9,1.39-1.36,2.37-1.36.53,0,.97.17,1.33.51.36.34.53.75.53,1.25,0,.34-.1.74-.29,1.21l-.2.49-2.6,6.44ZM76.06,29.81h.45c.99,0,1.65-.4,1.97-1.21l1.27-3.13c.17-.41.25-.75.25-1.03,0-.33-.16-.61-.48-.85-.32-.24-.7-.36-1.15-.36-.88,0-1.74.51-2.57,1.54-.83,1.02-1.25,2.09-1.25,3.18,0,1.24.5,1.86,1.5,1.86Z"/>
    <path class="cls-1" d="M101.69,29.72h1.9c1.53,0,2.3.54,2.3,1.61,0,.74-.27,1.31-.8,1.72-.54.41-1.29.61-2.25.61h-3.26c-.89,0-1.6-.21-2.12-.63s-.78-.99-.78-1.7c0-.37.17-.99.52-1.86l7.31-17.98.2-.49c.55-1.35,1.44-2.03,2.66-2.03.51,0,.94.17,1.29.51.36.34.53.74.53,1.21,0,.36-.09.77-.27,1.23l-.2.49-7.04,17.31Z"/>
    <path class="cls-1" d="M115.05,19.57c1.75,0,3.19.55,4.31,1.66,1.13,1.11,1.69,2.52,1.69,4.23,0,1.29-.3,2.57-.89,3.84s-1.36,2.29-2.3,3.05c-.63.49-1.28.83-1.94,1.02-.67.19-1.61.28-2.81.28-1.97,0-3.29-.24-3.98-.71-1.62-1.11-2.42-2.75-2.42-4.92,0-2.29.83-4.27,2.48-5.95,1.65-1.68,3.61-2.51,5.86-2.51ZM114.62,23.42c-.89,0-1.71.44-2.44,1.32-.74.88-1.1,1.85-1.1,2.91,0,1.4.78,2.1,2.35,2.1.92,0,1.62-.28,2.12-.85.82-.93,1.23-1.99,1.23-3.18,0-.69-.2-1.24-.6-1.66-.4-.42-.92-.63-1.56-.63Z"/>
    <path class="cls-1" d="M132.67,34.17h2.17c1.53,0,2.3.53,2.3,1.59,0,.74-.27,1.31-.81,1.73s-1.29.62-2.24.62h-3l-.76,1.86c-1.84,4.52-4.54,6.78-8.08,6.78-1.86,0-3.4-.57-4.64-1.72-1.24-1.15-1.85-2.58-1.85-4.3,0-1.12.3-2.17.9-3.16.6-.98,1.41-1.76,2.45-2.34,1.28-.71,3-1.07,5.15-1.07h3.89l.56-1.41c-.76.46-1.48.69-2.15.69-1.29,0-2.34-.45-3.14-1.34-.8-.89-1.2-2.06-1.2-3.49,0-2.31.81-4.4,2.44-6.26,1.63-1.86,3.45-2.79,5.48-2.79,1.48,0,2.59.48,3.33,1.45.57-.96,1.37-1.45,2.41-1.45.51,0,.94.17,1.29.5.36.33.53.73.53,1.2,0,.37-.16.95-.47,1.72l-4.54,11.18ZM126.52,38.11h-3.13c-1.09,0-1.93.23-2.52.69-.6.46-.9,1.1-.9,1.94,0,.57.21,1.05.62,1.45.41.4.92.6,1.52.6.87,0,1.63-.34,2.28-1.03.65-.69,1.36-1.9,2.13-3.64ZM130.32,28.74l1.47-3.58c.12-.3.18-.55.18-.74,0-.36-.16-.66-.48-.9-.32-.24-.72-.36-1.2-.36-.87,0-1.7.5-2.49,1.49-.79,1-1.18,2.05-1.18,3.16,0,1.27.59,1.9,1.77,1.9,1.02,0,1.67-.32,1.94-.96Z"/>
    <path class="cls-1" d="M146.52,19.57c1.75,0,3.19.55,4.31,1.66,1.13,1.11,1.69,2.52,1.69,4.23,0,1.29-.3,2.57-.89,3.84s-1.36,2.29-2.3,3.05c-.63.49-1.28.83-1.94,1.02-.67.19-1.61.28-2.81.28-1.97,0-3.29-.24-3.98-.71-1.62-1.11-2.42-2.75-2.42-4.92,0-2.29.83-4.27,2.48-5.95,1.65-1.68,3.61-2.51,5.86-2.51ZM146.09,23.42c-.89,0-1.71.44-2.44,1.32-.74.88-1.1,1.85-1.1,2.91,0,1.4.78,2.1,2.35,2.1.92,0,1.62-.28,2.12-.85.82-.93,1.23-1.99,1.23-3.18,0-.69-.2-1.24-.6-1.66-.4-.42-.92-.63-1.56-.63Z"/>
  </g>
</svg>