<svg id="Layer_1" xmlns="http://www.w3.org/2000/svg" xmlns:xlink="http://www.w3.org/1999/xlink" viewBox="0 0 700 700">
  <defs>
    <style>
      .cls-1 {
        fill: #fe2c55;
      }

      .cls-2 {
        fill: none;
      }

      .cls-3 {
        clip-path: url(#clippath-1);
      }

      .cls-4 {
        fill: #25f4ee;
      }

      .cls-5 {
        clip-path: url(#clippath);
      }
    </style>
    <clipPath id="clippath">
      <rect class="cls-2" x="-90.87" y="-90.87" width="881.73" height="881.73"/>
    </clipPath>
    <clipPath id="clippath-1">
      <rect class="cls-2" x="-90.87" y="-90.87" width="881.73" height="881.73"/>
    </clipPath>
  </defs>
  <g class="cls-5">
    <g class="cls-3">
      <path class="cls-4" d="M311.31,188.02v-16.56c-5.54-.75-11.18-1.23-16.92-1.23-69.24,0-125.57,56.33-125.57,125.58,0,42.48,21.23,80.08,53.61,102.82-20.9-22.44-33.31-52.49-33.31-85.5,0-68.25,54.33-123.52,122.2-125.1"/>
      <path class="cls-4" d="M314.28,370.89c30.89,0,56.53-24.99,57.68-55.61l.09-273,49.53-.42c-1.04-5.62-1.61-11.4-1.61-17.31h-68.23l-.11,273.42c-1.15,30.62-26.35,55.19-57.24,55.19-9.6,0-18.64-2.4-26.6-6.59,10.42,14.45,27.35,24.32,46.49,24.32"/>
      <path class="cls-4" d="M514.89,135.12v-15.65c-19.06,0-36.8-5.66-51.69-15.37,13.25,15.22,31.26,26.65,51.69,31.03"/>
      <path class="cls-1" d="M463.2,104.1c-14.52-16.68-23.34-38.44-23.34-62.23h-18.28c4.81,25.99,20.24,48.3,41.62,62.23"/>
      <path class="cls-1" d="M294.39,238.46c-31.62,0-57.35,25.73-57.35,57.35,0,22.02,12.49,41.15,30.75,50.76-6.8-9.43-10.86-20.96-10.86-33.45,0-31.62,25.73-57.35,57.35-57.35,5.9,0,11.57.97,16.92,2.65v-69.65c-5.54-.75-11.18-1.23-16.92-1.23-.99,0-1.98.05-2.96.07v53.49c-5.36-1.68-11.02-2.65-16.92-2.65"/>
      <path class="cls-1" d="M514.89,134.67v53.03c-35.38,0-68.16-11.32-94.92-30.52v138.65c0,69.24-56.33,125.58-125.58,125.58-26.76,0-51.57-8.44-71.97-22.76,22.94,24.63,55.62,40.07,91.85,40.07,69.24,0,125.57-56.33,125.57-125.57v-138.65c26.76,19.21,59.54,30.52,94.92,30.52v-68.23c-6.82,0-13.47-.74-19.89-2.11"/>
      <path d="M419.97,295.81v-138.65c26.76,19.21,59.54,30.52,94.92,30.52v-53.02c-20.43-4.37-38.44-15.35-51.69-30.57-21.38-13.94-36.8-36.24-41.62-62.23h-49.95l-.11,273.42c-1.15,30.62-26.35,55.19-57.24,55.19-19.13,0-36.07-9.46-46.49-23.9-18.25-9.61-30.75-28.74-30.75-50.76,0-31.62,25.73-57.35,57.35-57.35,5.9,0,11.57.97,16.92,2.65v-53.49c-67.87,1.59-122.61,57.25-122.61,125.5,0,33.01,12.82,63.07,33.72,85.5,20.4,14.32,45.21,22.76,71.97,22.76,69.24,0,125.58-56.33,125.58-125.58"/>
      <polygon points="21.57 513.39 131.59 513.39 121.49 544.86 92.94 544.85 92.94 661.23 57.38 661.23 57.38 544.85 21.59 544.92 21.57 513.39"/>
      <polygon points="311.82 513.39 424.39 513.39 414.29 544.86 383.26 544.85 383.26 661.23 347.63 661.23 347.63 544.85 311.85 544.92 311.82 513.39"/>
      <polygon points="138.3 560.41 173.58 560.41 173.54 661.23 138.51 661.23 138.3 560.41"/>
      <polygon points="187.56 512.97 222.8 512.97 222.8 581.82 257.72 547.56 299.78 547.56 255.61 590.42 305.08 661.23 266.26 661.23 233.24 612.13 222.8 622.28 222.8 661.23 187.56 661.23 187.56 512.97"/>
      <polygon points="560.91 512.97 596.15 512.97 596.15 581.82 631.07 547.56 673.13 547.56 628.96 590.42 678.43 661.23 639.61 661.23 606.59 612.13 596.15 622.28 596.15 661.23 560.91 661.23 560.91 512.97"/>
      <path d="M173.68,531.14c0,9.81-7.95,17.76-17.76,17.76s-17.76-7.95-17.76-17.76,7.95-17.76,17.76-17.76,17.76,7.95,17.76,17.76"/>
      <path class="cls-4" d="M420.14,600.88c0-31.74,24.5-57.74,55.62-60.15-1.56-.12-3.95-.2-5.55-.2-33.33,0-60.35,27.02-60.35,60.35s27.02,60.35,60.35,60.35c1.59,0,3.98-.08,5.55-.2-31.12-2.41-55.62-28.41-55.62-60.15"/>
      <path class="cls-1" d="M489.21,540.53c-1.61,0-4.01.08-5.59.2,31.1,2.43,55.58,28.42,55.58,60.15s-24.48,57.71-55.58,60.15c1.57.12,3.98.2,5.59.2,33.33,0,60.35-27.02,60.35-60.35s-27.02-60.35-60.35-60.35"/>
      <path d="M479.67,540.53c-33.33,0-60.35,27.02-60.35,60.35s27.02,60.35,60.35,60.35,60.35-27.02,60.35-60.35-27.02-60.35-60.35-60.35M479.67,630.22c-16.2,0-29.34-13.14-29.34-29.34s13.14-29.34,29.34-29.34,29.34,13.14,29.34,29.34-13.14,29.34-29.34,29.34"/>
    </g>
  </g>
</svg>