<svg id="Layer_1" xmlns="http://www.w3.org/2000/svg" xmlns:xlink="http://www.w3.org/1999/xlink" viewBox="0 0 700 700">
  <defs>
    <style>
      .cls-1 {
        fill: #fff;
      }

      .cls-2 {
        fill: none;
      }

      .cls-3 {
        fill: red;
      }

      .cls-4 {
        clip-path: url(#clippath-1);
      }

      .cls-5 {
        clip-path: url(#clippath);
      }
    </style>
    <clipPath id="clippath">
      <rect class="cls-2" x="-146.08" y="119.9" width="992.15" height="460.19"/>
    </clipPath>
    <clipPath id="clippath-1">
      <rect class="cls-2" x="-146.08" y="119.9" width="992.15" height="460.19"/>
    </clipPath>
  </defs>
  <g class="cls-5">
    <g class="cls-4">
      <path class="cls-3" d="M221,297.25c-2.52-9.43-9.95-16.85-19.38-19.37-17.09-4.58-85.62-4.58-85.62-4.58,0,0-68.53,0-85.62,4.58-9.43,2.52-16.86,9.94-19.38,19.37-4.58,17.09-4.58,52.75-4.58,52.75,0,0,0,35.66,4.58,52.74,2.52,9.43,9.95,16.86,19.38,19.38,17.09,4.58,85.62,4.58,85.62,4.58,0,0,68.53,0,85.62-4.58,9.43-2.52,16.86-9.95,19.38-19.38,4.58-17.09,4.58-52.74,4.58-52.74,0,0,0-35.66-4.58-52.75"/>
      <polygon class="cls-1" points="94.09 382.87 151.03 350 94.09 317.13 94.09 382.87"/>
      <path class="cls-1" d="M324.52,412.85c-4.34-2.92-7.42-7.47-9.24-13.64-1.83-6.16-2.74-14.36-2.74-24.6v-13.95c0-10.34,1.04-18.65,3.14-24.92,2.09-6.27,5.35-10.84,9.79-13.71,4.44-2.87,10.27-4.31,17.47-4.31s12.8,1.46,17.08,4.39c4.28,2.92,7.42,7.5,9.4,13.71,1.98,6.22,2.98,14.5,2.98,24.84v13.95c0,10.24-.97,18.47-2.9,24.68-1.93,6.22-5.07,10.76-9.4,13.63-4.34,2.87-10.21,4.31-17.63,4.31s-13.61-1.46-17.94-4.39M348.81,397.81c1.2-3.13,1.8-8.25,1.8-15.36v-29.93c0-6.89-.6-11.93-1.8-15.12-1.2-3.19-3.32-4.78-6.35-4.78s-4.99,1.59-6.19,4.78c-1.2,3.19-1.8,8.23-1.8,15.12v29.93c0,7.11.57,12.22,1.72,15.36,1.15,3.14,3.24,4.7,6.27,4.7s5.14-1.57,6.35-4.7"/>
      <path class="cls-1" d="M657.36,374.84v4.86c0,6.17.18,10.79.55,13.87.36,3.08,1.12,5.33,2.27,6.74,1.15,1.41,2.92,2.12,5.33,2.12,3.24,0,5.46-1.25,6.66-3.76,1.2-2.51,1.85-6.69,1.96-12.54l18.65,1.1c.1.84.16,1.99.16,3.45,0,8.88-2.43,15.52-7.29,19.91-4.86,4.39-11.73,6.58-20.61,6.58-10.66,0-18.13-3.34-22.41-10.03-4.29-6.69-6.43-17.03-6.43-31.03v-16.77c0-14.42,2.22-24.94,6.66-31.58,4.44-6.63,12.04-9.95,22.8-9.95,7.42,0,13.11,1.36,17.08,4.07,3.97,2.72,6.76,6.95,8.38,12.69,1.62,5.75,2.43,13.69,2.43,23.82v16.45h-36.2ZM660.1,334.41c-1.09,1.36-1.83,3.58-2.19,6.66-.37,3.08-.55,7.76-.55,14.02v6.9h15.83v-6.9c0-6.16-.21-10.84-.63-14.02-.42-3.19-1.17-5.43-2.27-6.74-1.1-1.31-2.79-1.96-5.09-1.96s-4,.68-5.09,2.04"/>
      <path class="cls-1" d="M271.86,373.05l-24.6-88.86h21.47l8.62,40.28c2.2,9.93,3.81,18.39,4.86,25.39h.63c.73-5.01,2.35-13.42,4.86-25.23l8.93-40.43h21.47l-24.92,88.86v42.63h-21.31v-42.63Z"/>
      <path class="cls-1" d="M442.22,319.61v96.06h-16.93l-1.88-11.75h-.47c-4.6,8.88-11.49,13.32-20.69,13.32-6.37,0-11.07-2.09-14.1-6.27-3.03-4.18-4.54-10.71-4.54-19.59v-71.77h21.63v70.52c0,4.29.47,7.34,1.41,9.17.94,1.83,2.51,2.74,4.7,2.74,1.88,0,3.68-.57,5.41-1.72,1.72-1.15,3-2.61,3.84-4.39v-76.32h21.63Z"/>
      <path class="cls-1" d="M553.15,319.61v96.06h-16.93l-1.88-11.75h-.47c-4.6,8.88-11.49,13.32-20.69,13.32-6.37,0-11.07-2.09-14.1-6.27-3.03-4.18-4.54-10.71-4.54-19.59v-71.77h21.63v70.52c0,4.29.47,7.34,1.41,9.17.94,1.83,2.51,2.74,4.7,2.74,1.88,0,3.68-.57,5.41-1.72,1.72-1.15,3-2.61,3.84-4.39v-76.32h21.63Z"/>
      <polygon class="cls-1" points="500.98 301.59 479.52 301.59 479.52 415.67 458.36 415.67 458.36 301.59 436.89 301.59 436.89 284.19 500.98 284.19 500.98 301.59"/>
      <path class="cls-1" d="M624.72,334.97c-1.31-6.06-3.42-10.45-6.35-13.16-2.93-2.71-6.95-4.07-12.07-4.07-3.97,0-7.68,1.12-11.13,3.37-3.45,2.25-6.11,5.2-7.99,8.86h-.16v-50.62s-20.84,0-20.84,0v136.34h17.86l2.2-9.09h.47c1.67,3.24,4.18,5.8,7.52,7.68,3.34,1.88,7.05,2.82,11.13,2.82,7.31,0,12.69-3.37,16.14-10.11,3.45-6.74,5.17-17.26,5.17-31.58v-15.2c0-10.76-.65-19.17-1.96-25.23M604.9,374.15c0,7-.29,12.49-.86,16.45-.57,3.97-1.54,6.79-2.9,8.46-1.36,1.67-3.19,2.51-5.48,2.51-1.78,0-3.42-.41-4.94-1.25-1.52-.84-2.74-2.09-3.68-3.76v-54.54c.73-2.61,1.98-4.75,3.76-6.43,1.77-1.67,3.71-2.51,5.8-2.51s3.89.86,5.09,2.58c1.2,1.72,2.04,4.62,2.51,8.7.47,4.07.71,9.87.71,17.39v12.38Z"/>
    </g>
  </g>
</svg>